<svg width="24" height="24" viewBox="0 0 24 24" fill="none" xmlns="http://www.w3.org/2000/svg">
<path opacity="0.8" d="M16.0034 10.5C16.0034 9.12501 15.3784 7.90625 14.3784 7.0625C14.4722 7.03125 14.5347 6.96875 14.6284 6.90625C15.3784 6.21875 15.8472 5.37499 15.9722 4.4375C16.0034 4.21875 15.8159 4 15.5972 4H14.3159C14.1597 4 14.0034 4.15625 13.9722 4.3125C13.8784 4.71875 13.6597 5.09375 13.3159 5.37499C12.8472 5.78125 12.1909 6 11.5034 6C10.7847 6 10.1597 5.78125 9.65967 5.37499C9.31592 5.09375 9.09717 4.71875 9.00342 4.3125C8.97217 4.15625 8.81592 4 8.65967 4H7.37842C7.15967 4 6.97217 4.21875 7.00342 4.4375C7.12842 5.37499 7.59717 6.21875 8.37841 6.90625C8.44092 6.96875 8.50342 7.03125 8.59717 7.0625C7.59717 7.90625 7.00342 9.12501 7.00342 10.5C7.00342 12.6563 8.47217 14.4375 10.5034 14.9063V16.5H9.37841C9.15967 16.5 9.00342 16.6875 9.00342 16.875V18.125C9.00342 18.3438 9.15967 18.5 9.37841 18.5H10.5034V19.625C10.5034 19.8438 10.6597 20 10.8784 20H12.1284C12.3159 20 12.5034 19.8438 12.5034 19.625V18.5H13.6284C13.8159 18.5 14.0034 18.3438 14.0034 18.125V16.875C14.0034 16.6875 13.8159 16.5 13.6284 16.5H12.5034V14.9063C14.5034 14.4375 16.0034 12.6563 16.0034 10.5ZM9.00342 10.5C9.00342 9.12501 10.0972 8 11.5034 8C12.8784 8 14.0034 9.12501 14.0034 10.5C14.0034 11.9063 12.8784 13 11.5034 13C10.0972 13 9.00342 11.9063 9.00342 10.5Z" fill="currentColor"/>
</svg>
