<svg width="24" height="24" viewBox="0 0 24 24" fill="none" xmlns="http://www.w3.org/2000/svg">
<path opacity="0.8" d="M19.5 4H16.2083C15.75 4 15.5417 4.54167 15.8333 4.875L16.5417 5.58333L13.1667 8.95834C12.25 8.37499 11.1667 8 10 8C6.66667 8 4 10.7083 4 14C4 17.3333 6.66667 20 10 20C13.2917 20 16 17.3333 16 14C16 12.8333 15.625 11.75 15.0417 10.8333L18.4167 7.45833L19.125 8.16667C19.4583 8.49999 20 8.25 20 7.79166V4.5C20 4.25 19.7499 4 19.5 4ZM10 17.3333C8.125 17.3333 6.66667 15.875 6.66667 14C6.66667 12.1667 8.125 10.6667 10 10.6667C11.8333 10.6667 13.3333 12.1667 13.3333 14C13.3333 15.875 11.8333 17.3333 10 17.3333Z" fill="currentColor"/>
</svg>
