<svg width="24" height="24" viewBox="0 0 24 24" fill="none" xmlns="http://www.w3.org/2000/svg">
<path d="M18 6H15.9747C15.0609 4.79313 13.6272 4 12 4C10.3728 4 8.93906 4.79313 8.02531 6H6C4.89719 6 4 6.89719 4 8V18C4 19.1028 4.89719 20 6 20H18C19.1028 20 20 19.1028 20 18V8C20 6.89719 19.1028 6 18 6ZM12 5C14.2091 5 16 6.79094 16 9C16 11.2091 14.2091 13 12 13C9.79094 13 8 11.2091 8 9C8 6.79094 9.79094 5 12 5ZM19 18C19 18.5522 18.5522 19 18 19H6C5.44781 19 5 18.5522 5 18V8C5 7.44781 5.44781 7 6 7H7.42375C7.15437 7.61344 7 8.28813 7 9C7 11.7569 9.24312 14 12 14C14.7569 14 17 11.7569 17 9C17 8.28813 16.8456 7.61344 16.5763 7H18C18.5522 7 19 7.44781 19 8V18ZM12 12C12.8272 12 13.5 11.3272 13.5 10.5C13.5 10.065 13.3109 9.67625 13.0144 9.40219L13.9594 7.19688C14.0681 6.94344 13.9506 6.64938 13.6966 6.54063C13.4441 6.43187 13.1491 6.54906 13.0403 6.80344L12.0947 9.00969C10.9866 8.9375 10.5 9.89531 10.5 10.5C10.5 11.3272 11.1728 12 12 12ZM12 10C12.2762 10 12.5 10.2238 12.5 10.5C12.5 10.7762 12.2762 11 12 11C11.7238 11 11.5 10.7762 11.5 10.5C11.5 10.2238 11.7238 10 12 10Z" fill="#212121"/>
</svg>
