<svg width="24" height="24" viewBox="0 0 24 24" fill="none" xmlns="http://www.w3.org/2000/svg">
<path d="M19.9053 4.27645C17.6397 2.36239 14.1631 2.63583 12.0147 4.86239C9.82718 2.63583 6.35062 2.36239 4.08499 4.27645C1.1553 6.73739 1.58499 10.7608 3.69437 12.9093L10.5303 19.9015C10.9209 20.2921 11.4288 20.5265 12.0147 20.5265C12.5616 20.5265 13.0694 20.2921 13.46 19.9015L20.335 12.9093C22.4053 10.7608 22.835 6.73739 19.9053 4.27645ZM18.9678 11.5811L12.1319 18.5733C12.0538 18.6515 11.9756 18.6515 11.8585 18.5733L5.02249 11.5811C3.57718 10.1358 3.30374 7.40145 5.29593 5.72177C6.81937 4.4327 9.16312 4.62801 10.6475 6.11239L12.0147 7.51864L13.3819 6.11239C14.8272 4.62801 17.1709 4.4327 18.6944 5.6827C20.6866 7.40145 20.4131 10.1358 18.9678 11.5811Z" fill="currentColor"/>
</svg>
