<svg width="24" height="24" viewBox="0 0 24 24" fill="none" xmlns="http://www.w3.org/2000/svg">
<path d="M15 4H9C8.44781 4 8 4.44781 8 5V19C8 19.5522 8.44781 20 9 20H15C15.5522 20 16 19.5522 16 19V5C16 4.44781 15.5522 4 15 4ZM9 19V5H15V7H13.25C13.1119 7 13 7.11187 13 7.25V7.75C13 7.88813 13.1119 8 13.25 8H15V10H13.25C13.1119 10 13 10.1119 13 10.25V10.75C13 10.8881 13.1119 11 13.25 11H15V13H13.25C13.1119 13 13 13.1119 13 13.25V13.75C13 13.8881 13.1119 14 13.25 14H15V16H13.25C13.1119 16 13 16.1119 13 16.25V16.75C13 16.8881 13.1119 17 13.25 17H15V19H9Z" fill="#212121"/>
</svg>
